<svg xmlns="http://www.w3.org/2000/svg" viewBox="0 0 200 260" fill="none" stroke="currentColor" stroke-linecap="square" stroke-linejoin="miter" stroke-width="5">
  <path d="M 100 8 L 112 22 L 100 36 L 88 22 Z" fill="currentColor" stroke="none"/>
  <line x1="100" y1="36" x2="100" y2="50" stroke-width="3"/>
  <line x1="78" y1="56" x2="122" y2="56"/>
  <line x1="78" y1="56" x2="78" y2="205"/>
  <line x1="122" y1="56" x2="122" y2="205"/>
  <line x1="83" y1="70" x2="100" y2="105" stroke-width="4"/>
  <line x1="117" y1="70" x2="100" y2="105" stroke-width="4"/>
  <line x1="100" y1="105" x2="83" y2="140" stroke-width="4"/>
  <line x1="100" y1="105" x2="117" y2="140" stroke-width="4"/>
  <line x1="83" y1="140" x2="100" y2="170" stroke-width="4"/>
  <line x1="117" y1="140" x2="100" y2="170" stroke-width="4"/>
  <line x1="100" y1="170" x2="83" y2="200" stroke-width="4"/>
  <line x1="100" y1="170" x2="117" y2="200" stroke-width="4"/>
  <line x1="62" y1="210" x2="94" y2="210"/>
  <line x1="106" y1="210" x2="138" y2="210"/>
</svg>
